<svg xmlns="http://www.w3.org/2000/svg" xmlns:xlink="http://www.w3.org/1999/xlink" width="282" height="42" viewBox="0 0 282 42">
  <defs>
    <clipPath id="clip-path">
      <path id="Bounding_box" data-name="Bounding box" d="M0,0H35V35H0Z" fill="#d9d9d9" style="isolation: isolate"/>
    </clipPath>
  </defs>
  <g id="Frame_2" data-name="Frame 2" style="isolation: isolate">
    <rect id="Frame_2-2" data-name="Frame 2" width="188" height="42" fill="none" style="isolation: isolate"/>
    <g id="interactive_space" transform="translate(0 3.5)" clip-path="url(#clip-path)" style="isolation: isolate">
      <path id="interactive_space-2" data-name="interactive_space" d="M10.208,8.021,7.292,5.1,4.375,8.021l2.917,2.917ZM.857,18.1A2.809,2.809,0,0,1,0,16.042V2.917A2.809,2.809,0,0,1,.857.857,2.809,2.809,0,0,1,2.917,0H26.25a2.809,2.809,0,0,1,2.06.857,2.809,2.809,0,0,1,.857,2.06V16.042a2.925,2.925,0,0,1-2.917,2.917h-4.7a7.752,7.752,0,0,0,.292-1.458,7.3,7.3,0,0,0,0-1.458H26.25V2.917H2.917V16.042H7.328a7.31,7.31,0,0,0,0,1.458,7.751,7.751,0,0,0,.292,1.458h-4.7A2.809,2.809,0,0,1,.857,18.1ZM22.7,8.112a2.109,2.109,0,0,0,.638-1.549,2.188,2.188,0,1,0-4.375,0A2.191,2.191,0,0,0,22.7,8.112ZM4.375,29.021a4.265,4.265,0,0,1,.711-2.37A4.457,4.457,0,0,1,6.964,25.01a17.415,17.415,0,0,1,3.719-1.258,18.357,18.357,0,0,1,7.8,0A17.414,17.414,0,0,1,22.2,25.01a4.457,4.457,0,0,1,1.878,1.641,4.265,4.265,0,0,1,.711,2.37v3.063H4.375Zm17.5.146v-.146a1.369,1.369,0,0,0-.255-.8,1.592,1.592,0,0,0-.656-.547,16.415,16.415,0,0,0-3.135-1.057,14.621,14.621,0,0,0-6.49,0A16.418,16.418,0,0,0,8.2,27.672a1.592,1.592,0,0,0-.656.547,1.369,1.369,0,0,0-.255.8v.146Zm-10.9-8.787a5.1,5.1,0,0,1,0-7.219,4.918,4.918,0,0,1,3.609-1.495,5.1,5.1,0,0,1,5.1,5.1,5.1,5.1,0,0,1-5.1,5.1A4.918,4.918,0,0,1,10.974,20.38Zm5.159-2.06a2.191,2.191,0,0,0-3.1-3.1,2.191,2.191,0,0,0,3.1,3.1Z" transform="translate(2.917 1.458)" fill="#fe9900" style="isolation: isolate"/>
    </g>
    <text id="Egészségablak" transform="translate(47)" fill="#69bd9c" font-size="28" font-family="Poppins-Bold, Poppins" font-weight="700" style="isolation: isolate"><tspan x="0" y="29">Egészségablak</tspan></text>
  </g>
</svg>
